<svg xmlns="http://www.w3.org/2000/svg" viewBox="0 0 35.404 36.188"><defs><style>.a{fill:#fff;}</style></defs><g transform="translate(-239.111 -143.139)"><path class="a" d="M138.439,128.181a1.39,1.39,0,0,0-.456-1.545,9.416,9.416,0,0,1-3.129-7.215v-7.159a14.123,14.123,0,1,0-28.245,0v7.611a10.209,10.209,0,0,1-3.038,6.826,1.387,1.387,0,0,0,.927,2.417h32.633A1.382,1.382,0,0,0,138.439,128.181ZM107.4,126.343a12.048,12.048,0,0,0,1.984-6.471v-7.611a11.351,11.351,0,1,1,22.7,0v7.159a12.53,12.53,0,0,0,2.023,6.923Z" transform="translate(136 45)"/><path class="a" d="M273.174,522.532a1.386,1.386,0,0,0,0,2.772h6.077a1.386,1.386,0,1,0,0-2.772Z" transform="translate(-19.395 -345.977)"/></g></svg>