<?xml version="1.0" encoding="utf-8"?>
<!-- Generator: Adobe Illustrator 21.1.0, SVG Export Plug-In . SVG Version: 6.00 Build 0)  -->
<svg version="1.1"
	 id="Layer_1" inkscape:version="0.48.4 r9939" sodipodi:docname="PlayStation_2_logo.svg" xmlns:cc="http://creativecommons.org/ns#" xmlns:dc="http://purl.org/dc/elements/1.1/" xmlns:inkscape="http://www.inkscape.org/namespaces/inkscape" xmlns:rdf="http://www.w3.org/1999/02/22-rdf-syntax-ns#" xmlns:sodipodi="http://sodipodi.sourceforge.net/DTD/sodipodi-0.dtd" xmlns:svg="http://www.w3.org/2000/svg"
	 xmlns="http://www.w3.org/2000/svg" xmlns:xlink="http://www.w3.org/1999/xlink" x="0px" y="0px" viewBox="0 0 326.8 63.2"
	 style="enable-background:new 0 0 326.8 63.2;" xml:space="preserve">
<style type="text/css">
	.st0{fill:#FFFFFF;}
</style>
<sodipodi:namedview  bordercolor="#666666" borderopacity="1" fit-margin-bottom="0" fit-margin-left="0" fit-margin-right="0" fit-margin-top="0" gridtolerance="10" guidetolerance="10" id="namedview25" inkscape:current-layer="layer1" inkscape:cx="253.37309" inkscape:cy="283.03906" inkscape:pageopacity="0" inkscape:pageshadow="2" inkscape:window-height="1058" inkscape:window-maximized="1" inkscape:window-width="1839" inkscape:window-x="73" inkscape:window-y="-8" inkscape:zoom="1.0111627" objecttolerance="10" pagecolor="#ffffff" showgrid="false">
	</sodipodi:namedview>
<g id="g3" transform="translate(-189.72168,-175.40596)">
</g>
<g id="layer1" transform="translate(-189.72168,-175.40596)" inkscape:groupmode="layer" inkscape:label="Layer">
	<path id="path3003" inkscape:connector-curvature="0" class="st0" d="M189.7,175.4v45.7h7.1v-41.3h6.6c0,0,4.8,0,6.4,2.1
		c1.4,1.8,1.7,5.1,1.7,7.4c0,2.4-0.2,6.1-1,7.4c-1.2,2.1-3.2,2.5-5,2.5h-4.4v4.1h6.3c0,0,5.7,0.2,8.1-2.2c3-3,3.7-7.1,3.7-12.6
		c0-5-1.8-10-5.5-11.7c-3-1.4-8.5-1.4-8.5-1.4L189.7,175.4"/>
	<path id="path3005" inkscape:connector-curvature="0" class="st0" d="M224.9,221.1h7.1v-45.7h-7.1V221.1L224.9,221.1z"/>
	<path id="path3007" inkscape:connector-curvature="0" class="st0" d="M270,186.1l13.1,34.2l-7.5,18.4h5.9l21.6-52.6h-6.6l-9.4,25.6
		l-8.7-25.6H270"/>
	<path id="path3009" inkscape:connector-curvature="0" class="st0" d="M308.4,220.8v-4.3c0,0,7.5,0.3,9.1,0.3c3.5,0,5.2-0.7,6.5-2.1
		c0.8-0.8,1.5-4.6,1.5-5.9c0-1.3-0.3-4.2-0.8-5.4c-0.5-1.1-1.8-2.2-3.6-2.4c-1.3-0.1-3.3-0.4-5.7-0.5c-3.3-0.2-5.5-1.9-6.5-3.1
		c-1-1.2-2.4-3.1-2.4-8.8c0-5.7,1.5-8.9,3-10.4c1.5-1.5,3.6-2.1,5.3-2.4c1.9-0.3,5-0.3,5-0.3l10,0.3v4.3c0,0-7.3-0.3-8.9-0.3
		c-3.5,0-4.5,0.7-5.8,2.1c-0.8,0.8-1.4,3.1-1.4,4.5c0,1.3,0.2,4,0.7,5.2c0.5,1.1,1.7,2.2,3.6,2.4c1.3,0.1,3.3,0.4,5.7,0.5
		c3.3,0.2,5.5,1.9,6.5,3.1c1,1.2,2.4,3.9,2.4,9.5c0,5.7-1.5,9.8-3,11.3c-1.5,1.5-3.6,2.1-5.3,2.4c-1.9,0.3-5,0.4-5,0.4L308.4,220.8"
		/>
	<path id="path3011" inkscape:connector-curvature="0" class="st0" d="M347.4,179.8h-7.1v33.6c0,0,0.2,3.1,0.3,4.1
		c0.2,1.1,1.7,3.6,5.8,3.6l7.4-0.1v-4.3c0,0-2,0.1-3.2,0.1c-1.2,0-2.7-0.1-3-2.1c-0.3-2.1-0.3-4.5-0.3-4.5v-19.8h8.1v-4.3h-8.1
		L347.4,179.8"/>
	<path id="path3013" inkscape:connector-curvature="0" class="st0" d="M416.2,221.1h7.1v-35h-7.1V221.1L416.2,221.1z"/>
	<path id="path3015" inkscape:connector-curvature="0" class="st0" d="M416.2,181.8h7.1v-6.4h-7.1V181.8z"/>
	<path id="path3017" inkscape:connector-curvature="0" class="st0" d="M445.9,185.8c4.9,0,8.6,1.1,10.6,2.7c2,1.6,4.6,5.1,4.6,15.1
		c0,10-2.5,13.5-4.6,15.1c-2,1.6-5.8,2.7-10.6,2.7c-4.9,0-8.6-1.1-10.7-2.7c-2-1.6-4.5-5.1-4.5-15.1c0-10,2.5-13.5,4.5-15.1
		C437.3,186.9,441.1,185.8,445.9,185.8z M441,192.5c-1,1.2-2.2,3.7-2.2,11.1c0,7.4,1.2,9.9,2.2,11.1c1,1.2,2.8,2,5.1,2
		c2.3,0,4.1-0.8,5.1-2c1-1.2,2.2-3.7,2.2-11.1c0-7.4-1.2-9.9-2.2-11.1c-1-1.2-2.8-2-5.1-2C443.8,190.5,442,191.3,441,192.5"/>
	<path id="path3019" inkscape:connector-curvature="0" class="st0" d="M475.9,191l7-0.3c1.8,0,4,0.5,5,1.8c1,1.2,1.6,2.7,1.6,5.1
		v23.4h7.1v-24c0-4.5-1.4-7.2-3.5-8.8c-3-2.4-8.4-2.1-8.4-2.1l-16,0.3v34.7h7.1L475.9,191"/>
	<path id="path3021" inkscape:connector-curvature="0" class="st0" d="M402,179.8h-7.1v33.6c0,0,0.2,3.1,0.3,4.1
		c0.2,1.1,1.7,3.6,5.8,3.6l7.4-0.1v-4.3c0,0-2,0.1-3.2,0.1s-2.7-0.1-3-2.1c-0.3-2.1-0.3-4.5-0.3-4.5v-19.8h8v-4.3h-8V179.8"/>
	<path id="path3023" inkscape:connector-curvature="0" class="st0" d="M259.1,197.6c0-2.4-0.6-3.9-1.6-5.1c-1-1.3-3.2-1.8-5-1.8
		l-9.4,0.3v-4.6l11.3-0.3c0,0,5.4-0.2,8.4,2.1c2.1,1.7,3.5,4.3,3.5,8.8v23.7l-13.7,0.3c0,0-6.2,0-9.3-1.2c-3-1.2-4.7-4.6-4.7-9.3
		c0-4.5,1.4-7.2,3.5-8.8c3-2.4,8.4-2.1,8.4-2.1h4.4v4h-2.4c-1.8,0-3.7,0.3-4.8,1.7c-1,1.2-1.5,2.3-1.5,4.7c0,3.1,0.6,4.6,2.1,5.6
		c1.3,1,3.6,1.2,6.3,1.2l4.7-0.3V197.6"/>
	<path id="path3025" inkscape:connector-curvature="0" class="st0" d="M379.4,197.6c0-2.4-0.6-3.9-1.6-5.1c-1.1-1.3-3.2-1.8-5-1.8
		l-9.4,0.3v-4.6l11.3-0.3c0,0,5.4-0.2,8.3,2.1c2.1,1.7,3.5,4.3,3.5,8.8v23.7l-13.7,0.3c0,0-6.2,0-9.3-1.2c-3-1.2-4.7-4.6-4.7-9.3
		c0-4.5,1.4-7.2,3.5-8.8c3-2.4,8.4-2.1,8.4-2.1h4.4v4h-2.5c-1.8,0-3.7,0.3-4.8,1.7c-1,1.2-1.5,2.3-1.5,4.7c0,3.1,0.6,4.6,2.1,5.6
		c1.3,1,3.7,1.2,6.3,1.2l4.7-0.3V197.6"/>
	<path id="path3027" inkscape:connector-curvature="0" class="st0" d="M509.6,221.4c1.9,0,3.6-0.7,4.9-2c1.3-1.3,2-3.1,2-4.9
		c0-1.9-0.7-3.6-2-4.9c-1.3-1.3-3.1-2-4.9-2c-3.8,0-7,3.1-7,7c0,1.9,0.7,3.6,2,4.9C506,220.7,507.7,221.4,509.6,221.4L509.6,221.4z
		 M503.8,214.4c0-1.5,0.6-3,1.7-4.1c1.1-1.1,2.5-1.7,4.1-1.7s3,0.6,4.1,1.7c1.1,1.1,1.7,2.5,1.7,4.1c0,3.2-2.6,5.8-5.8,5.8
		c-1.5,0-3-0.6-4.1-1.7C504.4,217.4,503.8,216,503.8,214.4"/>
	<path id="path3029" inkscape:connector-curvature="0" class="st0" d="M513,217.7c-0.1,0-0.2-0.2-0.2-0.3c0-0.1-0.1-0.3-0.1-0.6l0-1
		c0-0.5-0.1-0.8-0.3-1c-0.1-0.2-0.3-0.3-0.5-0.4c0.2-0.2,0.4-0.3,0.6-0.6c0.2-0.3,0.3-0.7,0.3-1.2c0-0.9-0.4-1.6-1.1-1.9
		c-0.4-0.2-0.9-0.3-1.5-0.3h-3.6v7.8h1.3V215h2.1c0.4,0,0.7,0,0.8,0.1c0.3,0.1,0.4,0.4,0.4,0.8l0.1,1.2c0,0.3,0,0.5,0.1,0.6
		c0,0.1,0.1,0.2,0.1,0.3l0.1,0.1h1.5L513,217.7L513,217.7L513,217.7z M511.5,212.7c0,0.4-0.1,0.7-0.3,0.9c-0.2,0.2-0.6,0.3-1,0.3
		H508v-2.2h2.3c0.3,0,0.6,0,0.7,0.1C511.3,211.9,511.5,212.2,511.5,212.7"/>
</g>
</svg>
