<svg xmlns="http://www.w3.org/2000/svg" viewBox="0 0 38.502 40.213"><defs><style>.a{fill:#f7f7f7;stroke:#f7f7f7;}</style></defs><g transform="translate(-425.846 -228.609)"><path class="a" d="M362.735,363.215a.46.46,0,0,1-.325-.136l-12.255-12.255a.462.462,0,0,1,.649-.649l12.255,12.255a.462.462,0,0,1-.325.788Z" transform="translate(100.642 -94.899)"/><path class="a" d="M15.034,30.069A15.035,15.035,0,1,1,30.069,15.034,15.052,15.052,0,0,1,15.034,30.069Zm0-29.255a14.22,14.22,0,1,0,14.221,14.22A14.235,14.235,0,0,0,15.034.814Z" transform="translate(426.346 229.109)"/></g></svg>