<svg id="Xbox_Logo" data-name="Xbox Logo" xmlns="http://www.w3.org/2000/svg" viewBox="0 0 182.518 51.329">
  <defs>
    <style>
      .cls-1 {
        fill: #fff;
      }
    </style>
  </defs>
  <path id="path6965" class="cls-1" d="M606.793,76.919,594.206,61.132l11.5-14.332h-4.319l-9.354,11.692L582.679,46.8h-4.293L589.86,61.156,577.3,76.944h4.319L592.033,63.87l10.44,13.074h4.319" transform="translate(-424.275 -35.37)"/>
  <path id="path6967" class="cls-1" d="M283.193,76.919l-12.56-15.787L282.106,46.8h-4.293L268.46,58.492,259.106,46.8h-4.319l11.5,14.356L253.7,76.944h4.319L268.46,63.87l10.414,13.074h4.319" transform="translate(-186.424 -35.37)"/>
  <path id="path6969" class="cls-1" d="M366.112,73.762h-9.619V62.809h9.619c3.657,0,8,.913,8,5.23C374.115,73.022,369.08,73.762,366.112,73.762Zm-9.619-23.829h9.619c2.6,0,6.969.592,6.969,4.785,0,3.157-2.544,5.057-6.969,5.057h-9.619Zm18.443,12.334a8.651,8.651,0,0,0-2.146-1.258,6.784,6.784,0,0,0,3.922-6.019c0-1.924-.768-8.19-10.626-8.19H352.81v13h-4.425c-.583.691-1.881,2.343-2.385,3.009h6.81v14.11h13.276c7.208,0,11.686-3.379,11.686-8.806a7.05,7.05,0,0,0-2.835-5.846" transform="translate(-254.266 -35.37)"/>
  <path id="path6971" class="cls-1" d="M487.734,72.294c-7.022,0-11.924-5.156-11.924-12.556s4.9-12.556,11.924-12.556c7,0,11.871,5.156,11.871,12.556C499.605,67.113,494.73,72.294,487.734,72.294Zm0-28.294c-9.221,0-15.634,6.463-15.634,15.738s6.413,15.738,15.634,15.738c9.168,0,15.581-6.463,15.581-15.738S496.9,44,487.734,44" transform="translate(-346.951 -33.26)"/>
  <g id="g4146" transform="translate(0 0)">
    <path id="path4148" class="cls-1" d="M25.792,48.06a28.743,28.743,0,0,1-12.221-4.041c-3.092-1.881-3.79-2.65-3.79-4.195,0-3.095,3.655-8.521,9.9-14.7,3.551-3.511,8.492-7.626,9.025-7.518,1.041.217,9.349,7.774,12.46,11.325,4.923,5.631,7.188,10.237,6.037,12.288C46.328,42.782,40.909,45.831,36.93,47A32.157,32.157,0,0,1,25.792,48.06ZM5.612,36.609A25.51,25.51,0,0,1,1.118,24.092c-.208-1.727-.135-2.713.471-6.258A24.993,24.993,0,0,1,8.281,5.164c1.384-1.339,1.506-1.374,3.19-.844,2.045.644,4.225,2.046,7.611,4.9l1.978,1.664-1.078,1.237c-5.014,5.734-10.3,13.862-12.288,18.889-1.084,2.73-1.518,5.477-1.053,6.617C6.953,38.4,6.665,38.114,5.612,36.609Zm45.063.621a11.693,11.693,0,0,0-.82-5.409c-1.623-4.628-7.066-13.246-12.062-19.1l-1.574-1.841,1.7-1.459a35.279,35.279,0,0,1,5.431-4.007,10.919,10.919,0,0,1,4-1.436c.5,0,2.247,1.693,3.661,3.545a25.9,25.9,0,0,1,4.617,9.952,30.992,30.992,0,0,1,.086,9.661,29.193,29.193,0,0,1-2.063,6.076,32.222,32.222,0,0,1-2.823,4.5c-.343.4-.343.4-.153-.484ZM26.245,3.1A36.064,36.064,0,0,0,18.415.519,15.726,15.726,0,0,0,15.8.382c-1.623.074-1.549,0,1.053-1.146A28.1,28.1,0,0,1,23.27-2.753a35.242,35.242,0,0,1,10.641-.011A31.162,31.162,0,0,1,42.226.12L42.8.45,41.479.387c-2.633-.125-6.466.866-10.586,2.736a21.437,21.437,0,0,1-2.4,1C28.419,4.109,27.4,3.648,26.245,3.1Z" transform="translate(-1.013 3.163)"/>
  </g>
</svg>
